<?xml version="1.0" encoding="utf-8"?>
<!-- Generator: Adobe Illustrator 25.2.3, SVG Export Plug-In . SVG Version: 6.00 Build 0)  -->
<svg version="1.1" id="Capa_1" xmlns="http://www.w3.org/2000/svg" xmlns:xlink="http://www.w3.org/1999/xlink" x="0px" y="0px"
	 viewBox="0 0 93 41.2" style="enable-background:new 0 0 93 41.2;" xml:space="preserve">
<style type="text/css">
	.st0{fill:#FF0000;}
	.st1{fill:#DEDEDE;}
	.st2{fill:#FFFFFF;stroke:#FFFFFF;stroke-miterlimit:10;}
</style>
<g id="Capa_6">
	<g>
		<path class="st0" d="M52,7.2c-6.4-7.3-17.6-8.1-25-1.6c-2.1,1.9-3.8,4.3-4.8,6.9c-4.7,0.2-8.9,3.1-10.7,7.4
			c-0.7-0.2-1.4-0.3-2.1-0.3c-4.7,0-8.5,3.8-8.5,8.5c0,4.7,3.8,8.5,8.5,8.5H52V7.2z"/>
		<g>
			<polygon class="st1" points="73,26.2 79.2,22.6 79.2,15.4 73,19 			"/>
			<polygon class="st0" points="73.6,26.5 79.2,29.8 79.2,23.3 			"/>
			<polygon class="st0" points="78.8,14.1 78.8,7.6 73.2,10.8 			"/>
			<polygon class="st1" points="72.6,11.2 66.4,14.8 72.6,18.4 78.8,14.8 			"/>
			<polygon class="st0" points="72,10.8 66.4,7.6 66.4,14.1 			"/>
			<polygon class="st0" points="79.8,15.7 79.8,22.2 85.4,19 			"/>
			<polygon class="st1" points="72.3,26.2 72.3,19 66,15.4 66,22.6 			"/>
			<polygon class="st0" points="65.4,15.7 59.8,19 65.4,22.2 			"/>
			<polygon class="st0" points="66,23.3 66,29.8 71.7,26.5 			"/>
			<path class="st0" d="M86.2,0.5H59.1c-3.7,0-6.7,3-6.7,6.7v27.1c0,3.7,3,6.7,6.7,6.8h18.5l-5-12.1L69,36.5h-9.9
				c-1.2,0-2.2-1-2.2-2.2V7.2c0-1.2,1-2.2,2.2-2.2h27.1c1.2,0,2.2,1,2.2,2.2v27c0,1.2-1,2.2-2.2,2.2h-5.9l1.8,4.5h4
				c3.7,0,6.7-3,6.7-6.7V7.2C92.8,3.5,89.8,0.5,86.2,0.5"/>
		</g>
		<path class="st2" d="M87.2-0.8H57.4c-3.6,0-6.5,2.9-6.5,6.5c0,0,0,0,0,0v29.1c0,3.6,2.9,6.5,6.5,6.5c0,0,0,0,0,0h29.8
			c3.6,0,6.5-2.9,6.5-6.5c0,0,0,0,0,0V5.8C93.8,2.1,90.8-0.8,87.2-0.8C87.2-0.8,87.2-0.8,87.2-0.8z M91.8,34.1
			c0,3.3-2.7,5.9-5.9,5.9H58.8c-3.3,0-5.9-2.7-5.9-5.9v-27c0-3.3,2.7-5.9,5.9-5.9h27.1c3.3,0,5.9,2.7,5.9,5.9V34.1z"/>
	</g>
</g>
</svg>
