<svg xmlns="http://www.w3.org/2000/svg" viewBox="0 0 36.47 44.67">
  <defs>
    <style>
      .cls-1 {
        fill: #9dd;
        stroke: #9dd;
        stroke-miterlimit: 10;
        stroke-width: 3.12px;
      }

      .cls-2 {
        fill: #fff;
      }

      .cls-3 {
        fill: #dedede;
      }
    </style>
  </defs>
  <g id="Menu">
    <g>
      <path class="cls-1" d="M18.23,2.08,2.17,6.64V24.3a17.85,17.85,0,0,0,1.5,7.16C8.75,43,18.23,42.59,18.23,42.59s9.61.41,14.66-11.35a17.47,17.47,0,0,0,1.4-6.92V6.64Z"/>
      <path class="cls-2" d="M18.23,39.9c-.77,0-6.3.06-10.43-6A17.54,17.54,0,0,1,4.8,24V9L18.23,5.22,31.67,9V24a17.54,17.54,0,0,1-3,9.88c-4.13,6.05-9.67,6-10.44,6Z"/>
      <g>
        <path class="cls-3" d="M18,39.65c-2,0-6.48-.75-10-5.88a17.18,17.18,0,0,1-3-9.74V9.22L18,5.55Z"/>
        <path class="cls-2" d="M17.73,5.88V39.39c-2-.1-6.23-.94-9.52-5.76A17,17,0,0,1,5.3,24V9.41L17.73,5.88m.5-.66L4.8,9V24a17.54,17.54,0,0,0,3,9.88c4.05,5.93,9.45,6,10.38,6h.05V5.22Z"/>
      </g>
    </g>
  </g>
</svg>
