<svg xmlns="http://www.w3.org/2000/svg" viewBox="0 0 57.39 51.93">
  <defs>
    <style>
      .cls-1 {
        fill: #e00;
      }

      .cls-2 {
        fill: #e10000;
      }

      .cls-3 {
        fill: #ad0000;
      }
    </style>
  </defs>
  <g id="Menu">
    <g>
      <path class="cls-1" d="M36.75,11.09a16.42,16.42,0,0,1,4.77,3.4l8.82-3.21A25.22,25.22,0,0,0,4.69,27.89l8.82-3.21A16.35,16.35,0,0,1,36.75,11.09"/>
      <path class="cls-1" d="M9.64,30.53l-8.4,3a25.23,25.23,0,0,0,3.92,8.54l8.8-3.2a16.4,16.4,0,0,1-4.36-8.4"/>
      <path class="cls-1" d="M46.16,27.21A16.36,16.36,0,0,1,22.91,40.79a16,16,0,0,1-4.78-3.36l-8.8,3.2a25.19,25.19,0,0,0,43.36-4A24.94,24.94,0,0,0,54.93,24Z"/>
      <path class="cls-1" d="M48.31,16.42l-8.41,3A16.44,16.44,0,0,1,42,28.75l8.8-3.2a25.43,25.43,0,0,0-2.49-9.13"/>
      <path class="cls-2" d="M17.18,23.34,8.36,26.56a26.94,26.94,0,0,0,.72,4.17l8.41-3.05a16.18,16.18,0,0,1-.26-4.34"/>
      <path class="cls-2" d="M56.16,13.62A25.86,25.86,0,0,0,54,10l-8.81,3.2a16.67,16.67,0,0,1,2.59,3.48Z"/>
      <path class="cls-3" d="M9.33,40.61a26.76,26.76,0,0,0,2.24,2.72l9.58-3.49a16.47,16.47,0,0,1-3-2.44ZM55,24l-8.8,3.2A16.34,16.34,0,0,1,45.41,31L55,27.49A25.41,25.41,0,0,0,55,24"/>
      <path class="cls-3" d="M17.15,25.12a17.57,17.57,0,0,1,0-1.78L8.36,26.56q.08.84.21,1.68Z"/>
      <path class="cls-3" d="M54.88,11.27c-.28-.45-.56-.89-.88-1.33l-8.81,3.22a16.11,16.11,0,0,1,1.09,1.24Z"/>
    </g>
  </g>
</svg>
