<svg xmlns="http://www.w3.org/2000/svg" viewBox="0 0 41.01 41.07">
  <defs>
    <style>
      .cls-1 {
        fill: #dedede;
      }

      .cls-2 {
        fill: #e00;
      }
    </style>
  </defs>
  <g id="Menu">
    <g>
      <polygon class="cls-1" points="20.85 25.99 27.08 22.39 27.08 15.19 20.85 18.79 20.85 25.99"/>
      <polygon class="cls-2" points="21.44 26.33 27.08 29.59 27.08 23.08 21.44 26.33"/>
      <polygon class="cls-2" points="26.74 13.91 26.74 7.4 21.1 10.65 26.74 13.91"/>
      <polygon class="cls-1" points="20.51 11 14.27 14.6 20.51 18.2 26.74 14.6 20.51 11"/>
      <polygon class="cls-2" points="19.91 10.65 14.27 7.4 14.27 13.91 19.91 10.65"/>
      <polygon class="cls-2" points="27.68 15.53 27.68 22.04 33.32 18.79 27.68 15.53"/>
      <polygon class="cls-1" points="20.17 25.99 20.17 18.79 13.93 15.19 13.93 22.39 20.17 25.99"/>
      <polygon class="cls-2" points="13.33 15.53 7.7 18.79 13.33 22.04 13.33 15.53"/>
      <polygon class="cls-2" points="13.93 23.08 13.93 29.59 19.57 26.33 13.93 23.08"/>
      <path class="cls-2" d="M34,.28H7A6.75,6.75,0,0,0,.25,7V34.07A6.75,6.75,0,0,0,7,40.79H25.51l-5-12.16-3.63,7.68H7a2.28,2.28,0,0,1-2.24-2.24V7A2.28,2.28,0,0,1,7,4.76H34A2.28,2.28,0,0,1,36.28,7V34.07A2.28,2.28,0,0,1,34,36.31H28.17L30,40.79h4a6.75,6.75,0,0,0,6.72-6.72V7A6.75,6.75,0,0,0,34,.28"/>
    </g>
  </g>
</svg>
