<?xml version="1.0" encoding="utf-8"?>
<!-- Generator: Adobe Illustrator 25.2.3, SVG Export Plug-In . SVG Version: 6.00 Build 0)  -->
<svg version="1.1" id="Capa_1" xmlns="http://www.w3.org/2000/svg" xmlns:xlink="http://www.w3.org/1999/xlink" x="0px" y="0px"
	 viewBox="0 0 26.6 27.3" style="enable-background:new 0 0 26.6 27.3;" xml:space="preserve">
<style type="text/css">
	.st0{fill:#00ADAF;}
</style>
<g id="Logos">
	<g>
		<path class="st0" d="M21.8,11.8h-3.9V1.4c0-0.3-0.3-0.6-0.6-0.6h-8C9,0.8,8.7,1.1,8.7,1.4v10.4h-4c-0.3,0-0.6,0.3-0.6,0.6
			c0,0.2,0.1,0.3,0.2,0.4l8.6,8.7c0.2,0.2,0.6,0.3,0.9,0l0,0l8.5-8.7c0.2-0.2,0.2-0.6,0-0.9C22.1,11.8,22,11.8,21.8,11.8z"/>
		<path class="st0" d="M4.3,26.5c-2.2,0-4-1.7-4-4v-2.9c0-0.3,0.3-0.6,0.6-0.6h1c0.3,0,0.6,0.3,0.6,0.6v2.9c0,1,0.8,1.7,1.8,1.7h18
			c0.9,0,1.7-0.8,1.7-1.7v-2.8c0-0.3,0.3-0.6,0.6-0.6h1h0.1c0.3,0,0.6,0.3,0.6,0.6v2.8c0,2.2-1.8,4-4,4H4.3L4.3,26.5z"/>
	</g>
</g>
</svg>
