<svg xmlns="http://www.w3.org/2000/svg" viewBox="0 0 37.69 31.26">
  <defs>
    <style>
      .cls-1 {
        fill: #00adaf;
      }
    </style>
  </defs>
  <g id="Logos">
    <path class="cls-1" d="M37.33,11.49a1.27,1.27,0,0,0-.7-.65L30.36,8.56a3.37,3.37,0,0,0,1-3.88A3.17,3.17,0,0,0,27,2.84a4.67,4.67,0,0,0-1.22.77,5.29,5.29,0,0,0-.42-1.36A3.05,3.05,0,0,0,20.84.87a3.4,3.4,0,0,0-1.67,3.62L12.9,2.21a1.21,1.21,0,0,0-1,0,1.22,1.22,0,0,0-.64.7L9.53,7.83a1.25,1.25,0,0,0,.74,1.6l.23.08-.35,1H3.72a1.25,1.25,0,0,0,0,2.49H9.24l-.71,2H4.46a1.24,1.24,0,1,0,0,2.48H7.62l-.72,2H1.49a1.25,1.25,0,0,0,0,2.49H8a1.07,1.07,0,0,0-.2.32,1.21,1.21,0,0,0,0,.95,1.27,1.27,0,0,0,.7.65l19.29,7a1.54,1.54,0,0,0,.42.07,1.25,1.25,0,0,0,1.17-.82L33.77,18l.23.08a1.26,1.26,0,0,0,1.59-.74l1.78-4.88A1.25,1.25,0,0,0,37.33,11.49Zm-24.54-1,.05-.12.33.12Zm21.82,2.27-.93,2.55-7.43-2.7.92-2.55ZM26.17,6.92A4.74,4.74,0,0,1,28,5.12h0a.92.92,0,0,1,.69-.07.81.81,0,0,1,.4.5.92.92,0,0,1-.59,1.28A4.31,4.31,0,0,1,26.17,6.92Zm-13.88.6L13.22,5l7.43,2.7-.93,2.55Zm9.34,4.72-.47-.17h0l.47.17L23,8.52l.66.24.27.1.25.09.67.25L19.08,25l-1.85-.68ZM22.11,3a.74.74,0,0,1,.56-.12c.2.06.35.31.42.45a5.4,5.4,0,0,1,.27,2.56,4,4,0,0,1-1.64-1.48A1,1,0,0,1,22.11,3Zm9.33,14.13-4,10.92-6-2.19,4-10.93ZM13.37,21.88a1.25,1.25,0,1,0,0-2.49H9.55l.47-1.3a1.18,1.18,0,0,0,0-.67H15.6a1.24,1.24,0,0,0,0-2.48H11.17l.47-1.31a1.07,1.07,0,0,0,0-.66h1.7a1.25,1.25,0,0,0,1.25-1.25,1.23,1.23,0,0,0-.32-.83l4.57,1.67-4,10.92-4.41-1.6Z"/>
  </g>
</svg>
