<svg xmlns="http://www.w3.org/2000/svg" viewBox="0 0 26.6 27.27">
  <defs>
    <style>
      .cls-1 {
        fill: #00adaf;
      }
    </style>
  </defs>
  <g id="Logos">
    <g>
      <path class="cls-1" d="M4.75,10.61H8.68V21a.63.63,0,0,0,.63.63h8a.63.63,0,0,0,.63-.63V10.61h3.93a.63.63,0,0,0,.45-1.07L13.75.84a.63.63,0,0,0-.9,0L4.3,9.54a.63.63,0,0,0,.45,1.07Z"/>
      <path class="cls-1" d="M22.29,26.61h-18a4,4,0,0,1-4-4V19.77A.63.63,0,0,1,1,19.14H2a.63.63,0,0,1,.62.63v2.85a1.71,1.71,0,0,0,1.71,1.71h18A1.71,1.71,0,0,0,24,22.62V19.77a.63.63,0,0,1,.63-.63h1a.63.63,0,0,1,.63.63v2.85a4,4,0,0,1-4,4Z"/>
    </g>
  </g>
</svg>
