<svg xmlns="http://www.w3.org/2000/svg" viewBox="0 0 39.82 23.03">
  <defs>
    <style>
      .cls-1 {
        fill: #00adaf;
      }
    </style>
  </defs>
  <g id="Logos">
    <path class="cls-1" d="M19.91,8.66a2.55,2.55,0,1,0,2.55,2.55,2.55,2.55,0,0,0-2.55-2.55Zm5.23,2.55a5.23,5.23,0,1,0-5.23,5.22,5.23,5.23,0,0,0,5.23-5.22Zm9.68,10.46-.31.39c-.42.55-1,.79-1.31.56l-6.61-4.68a.74.74,0,0,1-.1-.82l-1.33-1a7.18,7.18,0,1,1,1.07-1.46l1.38,1a.75.75,0,0,1,.84-.11l6.6,4.68c.31.24.2.87-.23,1.41Zm4.59-10.46a1.27,1.27,0,0,1-.3.83,34.71,34.71,0,0,1-5.58,5l-.58.41-2.11-1.54c.45-.28.88-.56,1.29-.86a35.37,35.37,0,0,0,4-3.41l.46-.44-.46-.45a33.79,33.79,0,0,0-4-3.41,26.86,26.86,0,0,0-5.58-3,17,17,0,0,0-6.64-1.5,17,17,0,0,0-6.64,1.5A27.38,27.38,0,0,0,7.69,7.35a35.94,35.94,0,0,0-4,3.41l-.45.45.45.44a35.79,35.79,0,0,0,4,3.41,27.11,27.11,0,0,0,5.58,3,17,17,0,0,0,6.64,1.5,15.75,15.75,0,0,0,5.58-1.09l2.45,1.77-.49.21A18.94,18.94,0,0,1,21.36,22c-.49,0-1,.06-1.45.06s-1.07,0-1.64-.07a19.14,19.14,0,0,1-5.89-1.52A29.54,29.54,0,0,1,6.3,17.05,34.71,34.71,0,0,1,.72,12h0a1.26,1.26,0,0,1-.3-.73,1.33,1.33,0,0,1,.3-.92h0a34.89,34.89,0,0,1,5.58-5,30.1,30.1,0,0,1,6.08-3.45,19.3,19.3,0,0,1,6-1.53c.51,0,1-.06,1.48-.06s.8,0,1.21,0a19.16,19.16,0,0,1,6.33,1.55,30.37,30.37,0,0,1,6.08,3.45,34.89,34.89,0,0,1,5.58,5h0a1.27,1.27,0,0,1,.29.83Z"/>
  </g>
</svg>
