<svg xmlns="http://www.w3.org/2000/svg" viewBox="0 0 34.92 47">
  <defs>
    <style>
      .cls-1 {
        fill: #838180;
        fill-rule: evenodd;
      }
    </style>
  </defs>
  <g id="Menu">
    <path class="cls-1" d="M34.26,34.49a6.09,6.09,0,0,0-3.69-5.08c-1.08-.57-5.91-2.65-5.91-2.65s-.32-.7-.46-1c-.35-.66-.66-.79-1.59-.85a9.26,9.26,0,0,1,0-2.47,3.47,3.47,0,0,0,.46-1.08c.05-.38.14-1.77.14-1.77a.51.51,0,0,0,.36.17c.58,0,.55-.6.75-1a6.59,6.59,0,0,0,.62-2.61c0-1,.17-2-.34-1.86a23.48,23.48,0,0,0,.77-3.56,7.58,7.58,0,0,0-.64-3.59c-.93-2.37-1.94-1.81-1.94-1.81s-.38-1.76-4.23-2c-.43,0-.91.17-1.32-.91C17.09,2,16.8.7,16.8.7l-.72,2.56L16.32.4a6.87,6.87,0,0,0-3.59,2.65A3.64,3.64,0,0,0,12,5.86l-.57-2.42a13,13,0,0,0-.47,1.79,4,4,0,0,0,.11,1.65A2,2,0,0,0,10,7.74a4.43,4.43,0,0,0-.45,2l.73-1.06a2,2,0,0,1,.16-.22l-.16.22A3.6,3.6,0,0,0,9.77,11a33.12,33.12,0,0,0,.71,3.39c-.77-.43-.57.63-.57,1.77a6.4,6.4,0,0,0,.67,2.61c.19.4.19,1,.77,1a.51.51,0,0,0,.36-.17s.09,1.39.14,1.77a3,3,0,0,0,.36.92l.07.12q0,.25.06.54c0,.1,0,.21,0,.33h0a7.55,7.55,0,0,1-.07,1.63c-.91.07-1.09.19-1.43.85-.15.28-.47,1-.47,1s-5,2.09-6.05,2.65A5.9,5.9,0,0,0,.81,33.77C.47,35.14.3,44,.21,46.59l17-.06,17.52,0c-.07-2.13-.2-10.78-.44-12.06Z"/>
  </g>
</svg>
