<svg xmlns="http://www.w3.org/2000/svg" viewBox="0 0 39.02 31.81">
  <defs>
    <style>
      .cls-1 {
        fill: #008a8c;
      }
    </style>
  </defs>
  <g id="Content">
    <g>
      <path class="cls-1" d="M33.94,5.09H29L28,3A4.81,4.81,0,0,0,23.66.28h-8.3A4.83,4.83,0,0,0,11,3L10,5.09H5.08A4.82,4.82,0,0,0,.27,9.9V26.73a4.83,4.83,0,0,0,4.81,4.81H33.94a4.83,4.83,0,0,0,4.81-4.81V9.9A4.82,4.82,0,0,0,33.94,5.09ZM19.51,27.93a9.62,9.62,0,1,1,9.62-9.62A9.62,9.62,0,0,1,19.51,27.93Z"/>
      <circle class="cls-1" cx="19.51" cy="18.31" r="6.25"/>
    </g>
  </g>
</svg>
