<svg xmlns="http://www.w3.org/2000/svg" xmlns:xlink="http://www.w3.org/1999/xlink" viewBox="0 0 40.9 40.57">
  <defs>
    <style>
      .cls-1 {
        fill: none;
      }

      .cls-2 {
        fill: #9dd;
      }

      .cls-3 {
        clip-path: url(#clip-path);
      }

      .cls-4 {
        fill: #fff;
      }
    </style>
    <clipPath id="clip-path">
      <circle class="cls-1" cx="20.45" cy="20.29" r="20.04"/>
    </clipPath>
  </defs>
  <g id="Menu">
    <g>
      <circle class="cls-2" cx="20.45" cy="20.29" r="20.04"/>
      <g class="cls-3">
        <g>
          <path class="cls-4" d="M23.88,7a8.78,8.78,0,0,1-.26,2.28,4.34,4.34,0,0,1-.73,1.51,2.77,2.77,0,0,1-1.09.84,3.56,3.56,0,0,1-1.37.26,3.59,3.59,0,0,1-1.37-.26A2.57,2.57,0,0,1,18,10.78a4.24,4.24,0,0,1-.7-1.51A8.76,8.76,0,0,1,17,7a9.13,9.13,0,0,1,.25-2.35A4,4,0,0,1,18,3.13a2.5,2.5,0,0,1,1.1-.79,3.93,3.93,0,0,1,1.41-.24,3.67,3.67,0,0,1,1.34.24,2.45,2.45,0,0,1,1.08.79,4.16,4.16,0,0,1,.71,1.51A9.08,9.08,0,0,1,23.88,7Zm-2,0a14.41,14.41,0,0,0-.07-1.61,4.19,4.19,0,0,0-.25-1,1.11,1.11,0,0,0-.44-.54,1.24,1.24,0,0,0-.66-.16,1.44,1.44,0,0,0-.69.16,1.17,1.17,0,0,0-.46.55,3.82,3.82,0,0,0-.24,1A14,14,0,0,0,19,7a13.66,13.66,0,0,0,.08,1.58,3.45,3.45,0,0,0,.25,1,1.17,1.17,0,0,0,.44.56,1.28,1.28,0,0,0,.67.16,1.3,1.3,0,0,0,.67-.16,1.24,1.24,0,0,0,.45-.56,3.78,3.78,0,0,0,.25-1A11.73,11.73,0,0,0,21.89,7Z"/>
          <path class="cls-4" d="M23.88,33.64a8.72,8.72,0,0,1-.26,2.28,4.34,4.34,0,0,1-.73,1.51,2.6,2.6,0,0,1-1.09.84,3.56,3.56,0,0,1-1.37.26,3.41,3.41,0,0,1-1.37-.26A2.62,2.62,0,0,1,18,37.44a4.32,4.32,0,0,1-.7-1.51A8.9,8.9,0,0,1,17,33.64a9.18,9.18,0,0,1,.25-2.35,4,4,0,0,1,.7-1.51,2.5,2.5,0,0,1,1.1-.79,3.94,3.94,0,0,1,1.41-.23,3.66,3.66,0,0,1,1.34.23,2.45,2.45,0,0,1,1.08.79,4.16,4.16,0,0,1,.71,1.51A9.14,9.14,0,0,1,23.88,33.64Zm-2,0A14.53,14.53,0,0,0,21.82,32a4.1,4.1,0,0,0-.25-1,1.14,1.14,0,0,0-.44-.55,1.46,1.46,0,0,0-1.35,0,1.14,1.14,0,0,0-.46.54,3.82,3.82,0,0,0-.24,1,14.17,14.17,0,0,0-.08,1.6,14,14,0,0,0,.08,1.59,3.53,3.53,0,0,0,.25,1,1.14,1.14,0,0,0,.44.55,1.28,1.28,0,0,0,.67.17,1.31,1.31,0,0,0,.67-.17,1.21,1.21,0,0,0,.45-.55,3.88,3.88,0,0,0,.25-1A12,12,0,0,0,21.89,33.64Z"/>
          <path class="cls-4" d="M9.84,25.09V23.62h2.73V17.36a1.69,1.69,0,0,1-.42.53,2.78,2.78,0,0,1-.66.43,4,4,0,0,1-.82.29,3.49,3.49,0,0,1-.91.11v-1.5a3.74,3.74,0,0,0,1-.12,3.52,3.52,0,0,0,.82-.33,3.4,3.4,0,0,0,.66-.51,3.25,3.25,0,0,0,.47-.65h1.87v8h2.27v1.47Z"/>
          <path class="cls-4" d="M33.67,25.09V23.62H36.4V17.36a1.52,1.52,0,0,1-.41.53,2.78,2.78,0,0,1-.66.43,4.28,4.28,0,0,1-.83.29,3.49,3.49,0,0,1-.91.11v-1.5a3.74,3.74,0,0,0,1-.12,3.6,3.6,0,0,0,.83-.33,3.66,3.66,0,0,0,.65-.51,2.9,2.9,0,0,0,.47-.65h1.87v8h2.27v1.47Z"/>
          <path class="cls-4" d="M29.45,38.24V36.77h2.73V30.51a1.77,1.77,0,0,1-.41.53,3,3,0,0,1-.67.43,4,4,0,0,1-.82.29,3.49,3.49,0,0,1-.91.11v-1.5a3.74,3.74,0,0,0,1-.12,3,3,0,0,0,.82-.34,2.77,2.77,0,0,0,.66-.51,2.64,2.64,0,0,0,.47-.64h1.87v8h2.27v1.47Z"/>
          <path class="cls-4" d="M4.55,38.24V36.77H7.28V30.51a1.62,1.62,0,0,1-.41.53,3,3,0,0,1-.67.43,4,4,0,0,1-.82.29,3.49,3.49,0,0,1-.91.11v-1.5a3.74,3.74,0,0,0,1-.12,3,3,0,0,0,.82-.34,2.77,2.77,0,0,0,.66-.51,2.64,2.64,0,0,0,.47-.64H9.26v8h2.27v1.47Z"/>
          <path class="cls-4" d="M28.63,20.21a8.7,8.7,0,0,1-.26,2.27A4.09,4.09,0,0,1,27.65,24a2.66,2.66,0,0,1-1.09.84,3.46,3.46,0,0,1-1.38.26,3.63,3.63,0,0,1-1.37-.25A2.6,2.6,0,0,1,22.74,24,4.33,4.33,0,0,1,22,22.49a9.22,9.22,0,0,1-.25-2.28A9.21,9.21,0,0,1,22,17.85a3.88,3.88,0,0,1,.71-1.5,2.5,2.5,0,0,1,1.09-.8,4.17,4.17,0,0,1,1.41-.23,4,4,0,0,1,1.35.23,2.5,2.5,0,0,1,1.07.8,3.88,3.88,0,0,1,.71,1.5A9.17,9.17,0,0,1,28.63,20.21Zm-2,0a14,14,0,0,0-.08-1.61,3.45,3.45,0,0,0-.25-1,1.06,1.06,0,0,0-.44-.54,1.23,1.23,0,0,0-.65-.16,1.37,1.37,0,0,0-.7.16,1.1,1.1,0,0,0-.45.55,3.45,3.45,0,0,0-.25,1,14.33,14.33,0,0,0-.07,1.6,14.07,14.07,0,0,0,.07,1.58,4.19,4.19,0,0,0,.25,1,1.22,1.22,0,0,0,.44.56,1.32,1.32,0,0,0,.68.16,1.24,1.24,0,0,0,.66-.16,1.3,1.3,0,0,0,.45-.56,3.75,3.75,0,0,0,.26-1A13.78,13.78,0,0,0,26.65,20.21Z"/>
          <path class="cls-4" d="M29.45,11.88V10.41h2.73V4.14a1.55,1.55,0,0,1-.41.53,3,3,0,0,1-.67.44,4.07,4.07,0,0,1-1.73.4V4a3.74,3.74,0,0,0,1-.12,3.35,3.35,0,0,0,.82-.33A2.77,2.77,0,0,0,31.82,3a2.69,2.69,0,0,0,.47-.65h1.87v8h2.27v1.47Z"/>
          <path class="cls-4" d="M4.55,11.88V10.41H7.28V4.14a1.44,1.44,0,0,1-.41.53,3,3,0,0,1-.67.44,4.07,4.07,0,0,1-1.73.4V4a3.74,3.74,0,0,0,1-.12,3.35,3.35,0,0,0,.82-.33A2.77,2.77,0,0,0,6.92,3a2.69,2.69,0,0,0,.47-.65H9.26v8h2.27v1.47Z"/>
          <path class="cls-4" d="M4.8,20.21a8.7,8.7,0,0,1-.26,2.27A4.42,4.42,0,0,1,3.82,24a2.72,2.72,0,0,1-1.09.84,3.46,3.46,0,0,1-1.38.26A3.59,3.59,0,0,1,0,24.84,2.57,2.57,0,0,1-1.1,24a4.32,4.32,0,0,1-.7-1.51A8.76,8.76,0,0,1-2,20.21a9.21,9.21,0,0,1,.25-2.36,3.88,3.88,0,0,1,.7-1.5,2.53,2.53,0,0,1,1.1-.8,4.17,4.17,0,0,1,1.41-.23,3.89,3.89,0,0,1,1.34.23,2.47,2.47,0,0,1,1.08.8,4,4,0,0,1,.71,1.5A9.17,9.17,0,0,1,4.8,20.21Zm-2,0a14.29,14.29,0,0,0-.07-1.61,4.19,4.19,0,0,0-.25-1A1.06,1.06,0,0,0,2.05,17a1.24,1.24,0,0,0-.66-.16A1.33,1.33,0,0,0,.7,17a1.17,1.17,0,0,0-.46.55,3.82,3.82,0,0,0-.24,1,14,14,0,0,0-.08,1.6A13.78,13.78,0,0,0,0,21.79a3.45,3.45,0,0,0,.25,1,1.22,1.22,0,0,0,.44.56,1.28,1.28,0,0,0,.67.16A1.3,1.3,0,0,0,2,23.38a1.3,1.3,0,0,0,.45-.56,3.78,3.78,0,0,0,.25-1A11.82,11.82,0,0,0,2.81,20.21Z"/>
        </g>
      </g>
    </g>
  </g>
</svg>
