<svg xmlns="http://www.w3.org/2000/svg" viewBox="0 0 71.27 36.47">
  <defs>
    <style>
      .cls-1 {
        fill: #e00;
      }

      .cls-2 {
        fill: #fff;
      }
    </style>
  </defs>
  <g id="Menu">
    <g>
      <path class="cls-1" d="M8.81,19a8.57,8.57,0,0,1,2.1.26A12,12,0,0,1,21.6,11.89a17.69,17.69,0,0,1,32.14-2,13.29,13.29,0,1,1,3.91,26H8.81A8.47,8.47,0,0,1,8.81,19Z"/>
      <path class="cls-2" d="M41.88,18.41a3.93,3.93,0,1,0-5.19,3.72v3.72a1.26,1.26,0,0,0,2.52,0V22.13A3.93,3.93,0,0,0,41.88,18.41Z"/>
    </g>
  </g>
</svg>
