<svg xmlns="http://www.w3.org/2000/svg" xmlns:xlink="http://www.w3.org/1999/xlink" viewBox="0 0 121.71 45.89">
  <defs>
    <style>
      .cls-1, .cls-5, .cls-8, .cls-9 {
        fill: none;
      }

      .cls-2 {
        fill: #fff;
      }

      .cls-2, .cls-5, .cls-7, .cls-8 {
        stroke: #fff;
      }

      .cls-2, .cls-9 {
        stroke-miterlimit: 10;
      }

      .cls-3 {
        fill: #dedede;
      }

      .cls-4, .cls-7 {
        fill: #e00;
      }

      .cls-5, .cls-7, .cls-8, .cls-9 {
        stroke-linecap: round;
      }

      .cls-5, .cls-7, .cls-8 {
        stroke-linejoin: round;
      }

      .cls-5 {
        stroke-width: 1.22px;
      }

      .cls-6 {
        clip-path: url(#clip-path);
      }

      .cls-7, .cls-8 {
        stroke-width: 0.85px;
      }

      .cls-9 {
        stroke: #e00;
        stroke-width: 1.01px;
      }
    </style>
    <clipPath id="clip-path">
      <polygon class="cls-1" points="84.98 16.91 84.98 33.95 70.22 42.48 55.46 33.95 55.46 16.91 70.22 8.39 84.98 16.91"/>
    </clipPath>
  </defs>
  <g id="Menu">
    <g>
      <rect class="cls-2" x="76.99" y="1.37" width="42.87" height="42.2" rx="6.54"/>
      <g>
        <polygon class="cls-3" points="99.05 28.32 105.29 24.72 105.29 17.52 99.05 21.12 99.05 28.32"/>
        <polygon class="cls-4" points="99.65 28.67 105.29 31.92 105.29 25.41 99.65 28.67"/>
        <polygon class="cls-4" points="104.95 16.25 104.95 9.73 99.31 12.99 104.95 16.25"/>
        <polygon class="cls-3" points="98.71 13.34 92.48 16.93 98.71 20.54 104.95 16.93 98.71 13.34"/>
        <polygon class="cls-4" points="98.12 12.99 92.48 9.73 92.48 16.25 98.12 12.99"/>
        <polygon class="cls-4" points="105.89 17.87 105.89 24.38 111.52 21.12 105.89 17.87"/>
        <polygon class="cls-3" points="98.37 28.32 98.37 21.12 92.14 17.52 92.14 24.72 98.37 28.32"/>
        <polygon class="cls-4" points="91.54 17.87 85.9 21.12 91.54 24.38 91.54 17.87"/>
        <polygon class="cls-4" points="92.14 25.41 92.14 31.92 97.78 28.67 92.14 25.41"/>
        <path class="cls-4" d="M112.25,2.62H85.18a6.74,6.74,0,0,0-6.72,6.72V36.4a6.74,6.74,0,0,0,6.72,6.72h18.54L98.71,31l-3.63,7.67h-9.9a2.27,2.27,0,0,1-2.24-2.24V9.34A2.27,2.27,0,0,1,85.18,7.1h27.07a2.27,2.27,0,0,1,2.24,2.24V36.4a2.27,2.27,0,0,1-2.24,2.24h-5.88l1.85,4.48h4A6.74,6.74,0,0,0,119,36.4V9.34a6.74,6.74,0,0,0-6.72-6.72"/>
      </g>
      <g>
        <g>
          <line class="cls-5" x1="70.23" y1="25.44" x2="70.23" y2="34.86"/>
          <line class="cls-5" x1="70.23" y1="25.44" x2="70.23" y2="40.53"/>
          <polygon class="cls-3" points="84.98 16.91 84.98 33.95 70.22 42.48 55.46 33.95 55.46 16.91 70.22 8.39 84.98 16.91"/>
          <g class="cls-6">
            <g>
              <line class="cls-7" x1="55.46" y1="16.91" x2="70.23" y2="25.44"/>
              <line class="cls-8" x1="70.23" y1="25.44" x2="70.23" y2="45.22"/>
              <line class="cls-7" x1="84.98" y1="16.91" x2="70.23" y2="25.44"/>
            </g>
          </g>
          <g class="cls-6">
            <path class="cls-4" d="M58.26,3.55c-.88,1-1.28,2.86-1.67,4.05a27.22,27.22,0,0,0-1.5,7.78c0,3.64,2.33,7.07,4.64,9.73s5.13,4.46,7.17,7.18a13.26,13.26,0,0,1,1,1.56,19,19,0,0,1,2,10.81c0,.18,0,1.28-.34,1.29l-20,.7L48,4S58.63,3.16,58.26,3.55Z"/>
          </g>
        </g>
        <g>
          <line class="cls-9" x1="51.06" y1="34.13" x2="1.86" y2="34.13"/>
          <line class="cls-9" x1="51.06" y1="16.84" x2="19.31" y2="16.84"/>
          <line class="cls-9" x1="49.28" y1="24.81" x2="35.99" y2="24.81"/>
        </g>
      </g>
    </g>
  </g>
</svg>
