<svg xmlns="http://www.w3.org/2000/svg" viewBox="0 0 34.9 28.55">
  <defs>
    <style>
      .cls-1 {
        fill: #00adaf;
      }
    </style>
  </defs>
  <g id="Menu">
    <g>
      <path class="cls-1" d="M33.71,4.77s-.69-.2-1.8-.42v-2a.78.78,0,0,0-.62-.77A21,21,0,0,0,26,.83a41.28,41.28,0,0,0-8.34,1.06l-.17.05-.17-.05A41.4,41.4,0,0,0,8.94.83a21,21,0,0,0-5.33.7A.78.78,0,0,0,3,2.3V4.35c-1.1.22-1.81.42-1.81.42a.3.3,0,0,0-.29.3V27.42a.29.29,0,0,0,.29.29,35.44,35.44,0,0,1,8.11-1.05,42.38,42.38,0,0,1,8.15,1.05,48.39,48.39,0,0,1,8.17-1.05,35.3,35.3,0,0,1,8.1,1.05.29.29,0,0,0,.3-.29V5.07A.3.3,0,0,0,33.71,4.77ZM16.65,24.68a36.09,36.09,0,0,0-7.36-.91,22.68,22.68,0,0,0-4.73.54V2.94a19,19,0,0,1,4.38-.53,40.52,40.52,0,0,1,7.71.95Zm13.68-.37a22.49,22.49,0,0,0-4.72-.54,36,36,0,0,0-7.36.91V3.36A40.52,40.52,0,0,1,26,2.41a18.91,18.91,0,0,1,4.37.53Z"/>
      <path class="cls-1" d="M5.49,5.83c.11.57.45,1,.77.88,1.5-.6,5.84-.61,8.9.56.31.12.87,0,.88-.77,0-1.06-.31-1.25-.66-1.38A16.13,16.13,0,0,0,6,4.63C5.6,4.72,5.39,5.26,5.49,5.83Z"/>
      <path class="cls-1" d="M15.38,10.08A16.13,16.13,0,0,0,6,9.59c-.35.09-.56.63-.46,1.21s.45.95.77.87c1.5-.6,5.84-.61,8.9.56.31.12.87,0,.88-.77C16.05,10.4,15.73,10.21,15.38,10.08Z"/>
      <path class="cls-1" d="M15.38,15A16.13,16.13,0,0,0,6,14.55c-.35.09-.56.63-.46,1.21s.45,1,.77.87c1.5-.6,5.84-.61,8.9.56.31.12.87,0,.88-.77C16.05,15.36,15.73,15.17,15.38,15Z"/>
      <path class="cls-1" d="M15.38,20A16.13,16.13,0,0,0,6,19.51c-.35.09-.56.63-.46,1.21s.45,1,.77.87c1.5-.6,5.84-.61,8.9.56.31.12.87,0,.88-.77C16.05,20.32,15.73,20.13,15.38,20Z"/>
      <path class="cls-1" d="M19.62,5.12c-.34.13-.66.32-.65,1.38,0,.78.56.89.87.77,3.06-1.17,7.41-1.16,8.9-.56.33.08.67-.31.77-.88s-.1-1.11-.46-1.2A16.13,16.13,0,0,0,19.62,5.12Z"/>
      <path class="cls-1" d="M29.05,9.59a16.13,16.13,0,0,0-9.43.49c-.34.13-.66.32-.65,1.38,0,.78.56.89.87.77,3.06-1.17,7.41-1.16,8.9-.56.33.08.67-.31.77-.87S29.41,9.68,29.05,9.59Z"/>
      <path class="cls-1" d="M29.05,14.55a16.13,16.13,0,0,0-9.43.49c-.34.13-.66.32-.65,1.38,0,.78.56.89.87.77,3.06-1.17,7.41-1.16,8.9-.56.33.08.67-.31.77-.87S29.41,14.64,29.05,14.55Z"/>
      <path class="cls-1" d="M29.05,19.51a16.13,16.13,0,0,0-9.43.49c-.34.13-.66.32-.65,1.38,0,.78.56.89.87.77,3.06-1.17,7.41-1.16,8.9-.56.33.08.67-.31.77-.87S29.41,19.6,29.05,19.51Z"/>
    </g>
  </g>
</svg>
