<svg xmlns="http://www.w3.org/2000/svg" viewBox="0 0 333.21 49.22">
  <defs>
    <style>
      .cls-1 {
        fill: red;
      }
    </style>
  </defs>
  <g id="Menu">
    <g>
      <path id="Divider" d="M160.23,47.85a.45.45,0,0,1-.44-.45V1.81a.44.44,0,0,1,.44-.44.45.45,0,0,1,.45.44V47.38A.44.44,0,0,1,160.23,47.85Z"/>
      <g id="Red_Hat_Logo" data-name="Red Hat Logo">
        <path class="cls-1" d="M29.72,27c2.88,0,7-.6,7-4a2.84,2.84,0,0,0-.07-.78L35,14.77c-.39-1.63-.74-2.37-3.61-3.82-2.26-1.13-7.11-3-8.56-3S21.1,9.66,19.51,9.66,16.85,8.38,15.4,8.38s-2.28.94-3,2.87c0,0-1.93,5.45-2.18,6.25a1.08,1.08,0,0,0-.07.44c0,2.14,8.34,9.08,19.54,9.08m7.47-2.62a11.66,11.66,0,0,1,.4,2.32c0,3.22-3.61,5-8.37,5-10.76,0-20.17-6.3-20.17-10.47A3.93,3.93,0,0,1,9.4,19.6c-3.87.18-8.88.87-8.88,5.28,0,7.25,17.15,16.17,30.74,16.17,10.42,0,13-4.72,13-8.42,0-2.94-2.53-6.25-7.11-8.23"/>
        <path d="M37.19,24.4a11.66,11.66,0,0,1,.4,2.32c0,3.22-3.61,5-8.37,5-10.76,0-20.17-6.3-20.17-10.47A3.93,3.93,0,0,1,9.4,19.6l.85-2.1a1.08,1.08,0,0,0-.07.44c0,2.14,8.34,9.08,19.54,9.08,2.88,0,7-.6,7-4a2.84,2.84,0,0,0-.07-.78Z"/>
        <path d="M133.69,29.16c0,2.74,1.66,4.07,4.65,4.07a11.31,11.31,0,0,0,2.73-.39V29.67a6,6,0,0,1-1.77.27c-1.24,0-1.7-.39-1.7-1.54V23.53h3.59V20.26H137.6V16.12l-3.91.85v3.29h-2.57v3.27h2.6v5.63Zm-12.16.07c0-.85.85-1.26,2.14-1.26a9.32,9.32,0,0,1,2.32.29v1.66a4.93,4.93,0,0,1-2.44.6c-1.26,0-2-.49-2-1.29m1.2,4.05a6.14,6.14,0,0,0,3.54-1v.78h3.86V24.86c0-3.13-2.09-4.83-5.61-4.83a14.24,14.24,0,0,0-6,1.41l1.4,2.87a10.62,10.62,0,0,1,3.87-1c1.61,0,2.43.62,2.43,1.91v.62a10.55,10.55,0,0,0-2.89-.37c-3.29,0-5.27,1.38-5.27,3.84,0,2.25,1.8,4,4.65,4m-21.25-.23h4.16V26.42h7v6.63h4.16V16.12h-4.16v6.51h-7V16.12h-4.16Zm-15.86-6.4A3.24,3.24,0,0,1,89,23.41a4.07,4.07,0,0,1,2.72,1v4.46a3.76,3.76,0,0,1-2.72,1,3.21,3.21,0,0,1-3.35-3.22m6.11,6.4H95.6V15.27l-3.91.85v4.81a6.59,6.59,0,1,0-3.38,12.28,5.75,5.75,0,0,0,3.42-1.11v.95ZM74,23.23a2.84,2.84,0,0,1,2.69,2H71.34a2.68,2.68,0,0,1,2.64-2m-6.6,3.45a6.72,6.72,0,0,0,7,6.62,7.61,7.61,0,0,0,5.33-1.93l-2.59-2.3a3.49,3.49,0,0,1-2.56,1,3.34,3.34,0,0,1-3.15-2h9.11V27c0-4.07-2.74-7-6.46-7a6.62,6.62,0,0,0-6.65,6.65m-6.73-7a1.92,1.92,0,1,1,0,3.81H56.53V19.69ZM52.37,33.05h4.16V26.88H59.7l3.2,6.17h4.64l-3.72-6.76A5.15,5.15,0,0,0,67,21.53c0-3.06-2.4-5.41-6-5.41H52.37V33.05Z"/>
      </g>
      <g>
        <path class="cls-1" d="M203.57,21.81a15.26,15.26,0,0,0-5-2.3c-.21-.05-.26-.14-.28-.34a5.88,5.88,0,0,0-.82-2.6l-2.32-4L193,9a6.88,6.88,0,0,1-.76-1.92l-.09.14a6.09,6.09,0,0,0-.08,6.36c1.18,2.1,2.45,4.16,3.6,6.27a6,6,0,0,1-.16,6.28l-.08.06a6.54,6.54,0,0,0-.74-1.9l-5-8.58a9,9,0,0,1-1-2c0-.08,0-.15,0-.22l-.08-.25a6.17,6.17,0,0,0-.19,6.45c1.17,2.11,2.42,4.18,3.6,6.28a6,6,0,0,1,.26,5.61c-.11.27-.27.53-.43.84a1.62,1.62,0,0,1-.06-.19,6.17,6.17,0,0,0-.68-1.68l-4.46-7.73a5.76,5.76,0,0,1-.71-1.93c-.07-.45-.1-.91-.15-1.4a17.83,17.83,0,0,0-2.85,1,10.93,10.93,0,0,0-3.81,2.64,5.16,5.16,0,0,0-1.33,2.74A4.65,4.65,0,0,0,179,29.41,9.68,9.68,0,0,0,182.34,32a21.47,21.47,0,0,0,9.22,2.09,24.53,24.53,0,0,0,4.53-.3A19,19,0,0,0,202,32a9.67,9.67,0,0,0,3.21-2.54,4.57,4.57,0,0,0,.22-5.71A7.89,7.89,0,0,0,203.57,21.81Z"/>
        <path class="cls-1" d="M304.87,14.81a.26.26,0,0,0-.22.3c0,1.3,0,2.59,0,3.89v.3l-.17,0a11.4,11.4,0,0,0-4.47.08,5.85,5.85,0,0,0-4.59,4.09,10.19,10.19,0,0,0,0,6,5.53,5.53,0,0,0,2.18,3.15,5.8,5.8,0,0,0,4.19.9,3.75,3.75,0,0,0,2.37-1.2c.19-.22.36-.46.57-.71l.16,1.64h2.69V14.5h-.1A9.83,9.83,0,0,0,304.87,14.81Zm-.39,15.44a4.72,4.72,0,0,1-3.47.84,3.2,3.2,0,0,1-2.68-2.3,7.74,7.74,0,0,1-.31-3.17,5.29,5.29,0,0,1,.43-1.74,3.58,3.58,0,0,1,3-2.21,9.7,9.7,0,0,1,3,.17c.16,0,.15.13.15.24V26c0,1.29,0,2.58,0,3.87A.4.4,0,0,1,304.48,30.25Z"/>
        <path class="cls-1" d="M221,23.72c-1.1-.54-2.23-1-3.35-1.53a6.87,6.87,0,0,1-2.08-1.32,2.18,2.18,0,0,1,.76-3.59,5.17,5.17,0,0,1,1-.26,11,11,0,0,1,3.8.26c.53.11,1.05.27,1.6.42a1.87,1.87,0,0,0,.07-.22c.15-.73.28-1.46.44-2.19,0-.2,0-.27-.22-.32a13.75,13.75,0,0,0-3.53-.66,11.82,11.82,0,0,0-3.93.3,5.1,5.1,0,0,0-2.65,1.6,4.72,4.72,0,0,0-1,3.22,4.67,4.67,0,0,0,1.88,3.84,11.89,11.89,0,0,0,1.84,1.12c.95.47,1.93.85,2.88,1.3A5.79,5.79,0,0,1,220.43,27a2.3,2.3,0,0,1,.1,3,2.64,2.64,0,0,1-1.34.77,9.28,9.28,0,0,1-3.71.12,12,12,0,0,1-3.23-.92,8.55,8.55,0,0,0-.46,2c0,.23-.1.52,0,.68s.41.2.63.29a12.29,12.29,0,0,0,3.8.71,12.77,12.77,0,0,0,3.65-.26,6,6,0,0,0,2.84-1.45A4.46,4.46,0,0,0,224.08,29a4.78,4.78,0,0,0-1-3.66A6.4,6.4,0,0,0,221,23.72Z"/>
        <path class="cls-1" d="M318.73,19.4a8,8,0,0,0-3.67-.19,5.43,5.43,0,0,0-4.52,3.66,10,10,0,0,0-.3,5.73,5.78,5.78,0,0,0,4.41,4.63,11,11,0,0,0,4,.25,8.85,8.85,0,0,0,2.86-.72.41.41,0,0,0,.2-.25c.12-.57.21-1.15.31-1.72,0-.24.07-.49.11-.76l-.17.06a11.1,11.1,0,0,1-2.52.76,9.12,9.12,0,0,1-3.53,0A3.64,3.64,0,0,1,313,27.5h9.37c0-.07,0-.12,0-.17a11.6,11.6,0,0,0,0-3.81A5.1,5.1,0,0,0,318.73,19.4ZM312.93,25a4.37,4.37,0,0,1,1-2.51,3,3,0,0,1,2.22-1,3.79,3.79,0,0,1,1.46.18A2.79,2.79,0,0,1,319.46,24c.07.33.09.67.13,1Z"/>
        <path class="cls-1" d="M268.11,32.89a6,6,0,0,0,3.71.59,3.84,3.84,0,0,0,2.34-1.19c.18-.19.33-.39.52-.63l.16,1.56h2.7V33q0-6.47,0-12.93a.27.27,0,0,0-.22-.3,13.81,13.81,0,0,0-3.37-.62,13.59,13.59,0,0,0-3.92.21,5.81,5.81,0,0,0-4.5,3.85,9.92,9.92,0,0,0,0,6.65A5.27,5.27,0,0,0,268.11,32.89Zm.33-8.86a3.62,3.62,0,0,1,3.12-2.36,10.31,10.31,0,0,1,3,.1V22q0,4,0,7.9a.41.41,0,0,1-.23.4,4.55,4.55,0,0,1-3.56.71,3,3,0,0,1-2.33-2A6.88,6.88,0,0,1,268.44,24Z"/>
        <path class="cls-1" d="M228.7,32.68a5.91,5.91,0,0,0,4.06.8,3.86,3.86,0,0,0,2.37-1.21c.16-.18.31-.38.5-.6.06.54.11,1,.16,1.55h2.7V20.07a.27.27,0,0,0-.23-.31,13.66,13.66,0,0,0-3.35-.62,12.9,12.9,0,0,0-4.11.26,5.77,5.77,0,0,0-4.33,3.84,10,10,0,0,0,0,6.52A5.4,5.4,0,0,0,228.7,32.68Zm.61-8.45a3.67,3.67,0,0,1,3.21-2.56,10.31,10.31,0,0,1,3,.1v.29q0,3.92,0,7.85a.42.42,0,0,1-.21.41,4.61,4.61,0,0,1-3.69.7,3.07,3.07,0,0,1-2.31-2.12A7.06,7.06,0,0,1,229.31,24.23Z"/>
        <path class="cls-1" d="M241.72,33.22h2.93v-11a1.47,1.47,0,0,0,0-.21c0-.12,0-.17.17-.18l.83-.11a9.25,9.25,0,0,1,3,.07,2.18,2.18,0,0,1,1.89,1.76,6.14,6.14,0,0,1,.11,1.06v8.63h2.95V24.43a11.64,11.64,0,0,0,0-1.18,4,4,0,0,0-2.7-3.59,10.3,10.3,0,0,0-3.89-.57,24.58,24.58,0,0,0-5,.69c-.19,0-.26.11-.26.31q0,6.43,0,12.89C241.71,33.06,241.72,33.14,241.72,33.22Z"/>
        <path class="cls-1" d="M289.67,24.69q0,4.11,0,8.24v.28h2.94c0-.07,0-.13,0-.19,0-2.91,0-5.83,0-8.74a8.38,8.38,0,0,0-.1-1.32A3.93,3.93,0,0,0,290,19.7a10.25,10.25,0,0,0-4-.61,24.8,24.8,0,0,0-4.92.68c-.21,0-.28.11-.28.34V33c0,.09,0,.17,0,.27h2.94V22c0-.13,0-.18.18-.2s.55-.08.83-.11a9.42,9.42,0,0,1,2.95.08,2.2,2.2,0,0,1,1.93,1.95A5.32,5.32,0,0,1,289.67,24.69Z"/>
        <path class="cls-1" d="M263.74,32.91c.06-.47.15-.93.21-1.39,0-.29.06-.58.09-.89a6.7,6.7,0,0,1-2.72.38,1.83,1.83,0,0,1-1.74-1.47,4.06,4.06,0,0,1-.11-.92q0-3.15,0-6.31c0-.07,0-.15,0-.25h4.41l.26-2.53h-4.69V14.48a11.6,11.6,0,0,0-2.66.35.31.31,0,0,0-.28.36q0,6.93,0,13.87a6.52,6.52,0,0,0,.1,1.17A3.59,3.59,0,0,0,258.55,33a5.19,5.19,0,0,0,2.12.53,7.22,7.22,0,0,0,2.81-.33A.32.32,0,0,0,263.74,32.91Z"/>
        <path class="cls-1" d="M332.68,19.21a1.18,1.18,0,0,0-.25,0c-.93,0-1.85-.08-2.78-.06a17.48,17.48,0,0,0-4.31.64c-.21.06-.26.16-.26.37,0,4.27,0,8.54,0,12.81v.28h3V21.77a18.43,18.43,0,0,1,4.39-.06A10.06,10.06,0,0,0,332.68,19.21Z"/>
      </g>
    </g>
  </g>
</svg>
