<svg xmlns="http://www.w3.org/2000/svg" viewBox="0 0 144.99 36.8">
  <defs>
    <style>
      .cls-1 {
        fill: red;
      }
    </style>
  </defs>
  <g id="Logos">
    <g id="Red_Hat_Logo" data-name="Red Hat Logo">
      <path class="cls-1" d="M31.36,20.93c2.87,0,7-.6,7-4a3,3,0,0,0-.07-.79l-1.7-7.45C36.23,7,35.89,6.31,33,4.86c-2.26-1.13-7.11-3-8.56-3s-1.72,1.72-3.31,1.72S18.48,2.28,17,2.28s-2.28,1-3,2.88c0,0-1.93,5.45-2.18,6.25a1.06,1.06,0,0,0-.07.44c0,2.14,8.34,9.08,19.54,9.08m7.47-2.62a11.82,11.82,0,0,1,.39,2.32c0,3.22-3.61,5-8.37,5-10.76,0-20.16-6.3-20.16-10.46A4,4,0,0,1,11,13.5c-3.87.19-8.88.88-8.88,5.29C2.16,26,19.31,35,32.9,35c10.42,0,13-4.72,13-8.42,0-2.94-2.53-6.25-7.11-8.23"/>
      <path d="M38.83,18.31a11.82,11.82,0,0,1,.39,2.32c0,3.22-3.61,5-8.37,5-10.76,0-20.16-6.3-20.16-10.46A4,4,0,0,1,11,13.5l.85-2.09a1.06,1.06,0,0,0-.07.44c0,2.14,8.34,9.08,19.54,9.08,2.87,0,7-.6,7-4a3,3,0,0,0-.07-.79Z"/>
      <path d="M135.33,23.07c0,2.73,1.66,4.07,4.65,4.07a11.38,11.38,0,0,0,2.73-.39V23.57a5.69,5.69,0,0,1-1.77.28c-1.24,0-1.7-.39-1.7-1.54V17.43h3.59V14.17h-3.59V10l-3.91.85v3.29h-2.57v3.26h2.6v5.64Zm-12.16.07c0-.85.85-1.27,2.14-1.27a9.31,9.31,0,0,1,2.32.3v1.66a5,5,0,0,1-2.44.59c-1.26,0-2-.48-2-1.28m1.19,4a6.24,6.24,0,0,0,3.55-1V27h3.86V18.77c0-3.13-2.09-4.83-5.61-4.83a14.34,14.34,0,0,0-6,1.4l1.4,2.88a10.66,10.66,0,0,1,3.87-1c1.6,0,2.43.63,2.43,1.91v.62a11,11,0,0,0-2.89-.36c-3.29,0-5.27,1.38-5.27,3.84,0,2.25,1.79,4,4.64,4M103.12,27h4.16V20.33h7V27h4.16V10h-4.16v6.51h-7V10h-4.16ZM87.26,20.56a3.23,3.23,0,0,1,3.35-3.24,4.07,4.07,0,0,1,2.72,1v4.46a3.76,3.76,0,0,1-2.72,1,3.22,3.22,0,0,1-3.35-3.22M93.37,27h3.86V9.18l-3.9.85v4.81A6.45,6.45,0,0,0,90.06,14,6.56,6.56,0,1,0,90,27.11,5.81,5.81,0,0,0,93.37,26V27ZM75.62,17.14a2.84,2.84,0,0,1,2.69,2H73a2.66,2.66,0,0,1,2.64-2M69,20.58a6.73,6.73,0,0,0,7,6.63,7.63,7.63,0,0,0,5.33-1.93L78.72,23a3.45,3.45,0,0,1-2.55,1,3.33,3.33,0,0,1-3.15-2h9.11v-1c0-4.07-2.74-7-6.46-7A6.61,6.61,0,0,0,69,20.58m-6.73-7a1.92,1.92,0,1,1,0,3.81H58.17V13.6ZM54,27h4.16V20.79h3.17L64.54,27h4.64l-3.72-6.76a5.13,5.13,0,0,0,3.19-4.76c0-3-2.39-5.4-6-5.4H54V27Z"/>
    </g>
  </g>
</svg>
