<svg xmlns="http://www.w3.org/2000/svg" viewBox="0 0 39.35 26.82">
  <defs>
    <style>
      .cls-1 {
        fill: #00adaf;
      }
    </style>
  </defs>
  <g id="Logos">
    <path class="cls-1" d="M31,15.86a5.53,5.53,0,1,0-4.54-10,6.74,6.74,0,0,0-13.33.21,5.53,5.53,0,1,0-4.84,9.75A9.49,9.49,0,0,0,.39,25.21a1.12,1.12,0,0,0,1.12,1.11H37.84A1.12,1.12,0,0,0,39,25.21,9.49,9.49,0,0,0,31,15.86Zm-3.8-7.71a3.24,3.24,0,0,1,2.25-.89,3.3,3.3,0,1,1-3.27,3.68l-.15-1.27c.09-.21.16-.42.23-.64Zm-3,4a5.57,5.57,0,0,0,3.74,3.66l-.77.12a11.85,11.85,0,0,0-5.55-2.42A6.68,6.68,0,0,0,24.2,12.19ZM19.84,2.52A4.53,4.53,0,1,1,15.32,7,4.52,4.52,0,0,1,19.84,2.52ZM15.21,12A6.77,6.77,0,0,0,18,13.55,11.78,11.78,0,0,0,12.42,16l-.77-.15-.24,0A5.5,5.5,0,0,0,15.21,12ZM6.57,10.55A3.29,3.29,0,0,1,12.44,8.5l.73.9v1.15a3.3,3.3,0,0,1-6.6,0ZM8.09,24.09H2.71A7.26,7.26,0,0,1,9.87,18c.2,0,.42,0,.64,0A11.88,11.88,0,0,0,8.09,24.09Zm2.25,0a9.57,9.57,0,0,1,19,0Zm21.25,0A11.82,11.82,0,0,0,29.16,18h.32a7.25,7.25,0,0,1,7.16,6.13Z"/>
  </g>
</svg>
